<?xml version="1.0" encoding="utf-8"?>
<!-- Generator: Adobe Illustrator 18.0.0, SVG Export Plug-In . SVG Version: 6.00 Build 0)  -->
<!DOCTYPE svg PUBLIC "-//W3C//DTD SVG 1.1//EN" "http://www.w3.org/Graphics/SVG/1.1/DTD/svg11.dtd">
<svg version="1.1" id="Logo_1_" xmlns="http://www.w3.org/2000/svg" xmlns:xlink="http://www.w3.org/1999/xlink" x="0px" y="0px"
	 viewBox="0 0 295.6 77.9" enable-background="new 0 0 295.6 77.9" xml:space="preserve">
<g id="mywaitlist">
	<g>
		<path fill="#7AB800" d="M16.3,20.7V26h0.1c1.7-3.9,4.9-5.9,9.5-5.9c4.3,0,7.4,2,9.4,5.9c0.8-1.9,2.1-3.4,3.9-4.4s3.8-1.5,6-1.5
			c3.6,0,6.4,1.1,8.3,3.4c1.2,1.5,1.8,3.7,1.8,6.7v3.3v21.3h-9.9v-18c0-3.2,0-5.2-0.1-6.1c-0.5-1.8-1.9-2.7-4.3-2.7
			c-2,0-3.5,0.9-4.3,2.6c-0.5,1.1-0.8,3.1-0.8,6.2v18h-9.8v-18v-2.3c0-2-0.3-3.6-0.9-4.8c-0.6-1.2-1.8-1.7-3.6-1.7
			c-2.2,0-3.6,0.8-4.1,2.4c-0.6,1.6-0.9,3.7-0.9,6.5v18H6.9V20.7H16.3z"/>
		<path fill="#7AB800" d="M77.4,52.8c-1,3.1-1.7,5.2-2.2,6.4c-0.5,1.2-1.1,2.5-2,3.7c-0.9,1.2-2.1,2.2-3.6,2.9
			c-1.5,0.7-3.4,1.1-5.7,1.1l-4.9-0.4v-7.8l5,0.5c1.7,0,2.9-0.3,3.7-1s1.4-1.7,1.8-3.3L57,20.7h10.7L74.2,41l6.2-20.3h7.5L77.4,52.8
			z"/>
		<path fill="#1393D1" d="M124.6,54.9h-8.9L110.4,33h-0.1L105,54.9h-8.4L86,20.7h10.6l5.4,20.9h0.1l5.2-20.9h9.1l4.9,21h0.1l5.8-21
			h7.8L124.6,54.9z"/>
		<path fill="#1393D1" d="M156.9,54.9c-0.3-1.1-0.4-2.9-0.4-5.3c-1.5,2.1-3,3.6-4.7,4.6c-1.7,0.9-3.7,1.4-6.2,1.4
			c-3.2,0-5.8-0.8-7.8-2.5c-2-1.7-3-4-3-7.1c0-4.9,2.6-8.3,7.7-10.2c2-0.7,6.5-1.4,13.4-2.1v-0.8c0-2.2-0.3-3.7-0.9-4.5
			c-0.8-1.1-2.2-1.7-4.1-1.7c-1.6,0-3,0.4-4.2,1.3c-1.1,0.9-1.7,2.1-1.7,3.7l-9.4-0.9c0.5-3.8,2.3-6.6,5.4-8.2
			c3.1-1.6,6.7-2.5,11-2.5c4.8,0,8.4,1,10.8,3.1c1.4,1.1,2.2,2.3,2.6,3.9c0.4,1.5,0.6,3.8,0.6,6.8v15.9c0,2.1,0.2,3.8,0.7,5.1H156.9
			z M155.9,38.6c-2.9,0.3-5.4,0.9-7.5,1.8c-2.1,0.8-3.2,2.4-3.2,4.5c0,1.3,0.4,2.4,1.2,3.2s1.8,1.2,3.2,1.2c2.1,0,3.8-1,5-2.9
			c0.9-1.4,1.3-3.6,1.3-6.5V38.6z"/>
		<path fill="#1393D1" d="M179.9,17.6h-9.8V8.1h9.8V17.6z M179.9,54.9h-9.8V20.7h9.8V54.9z"/>
		<path fill="#1393D1" d="M181.5,28.5v-7.9h6l0.8-10L197,10v10.7h7.4v7.9H197v13.6c0,1.6,0.1,2.7,0.2,3.4c0.1,0.7,0.6,1.2,1.2,1.6
			s1.8,0.5,3.4,0.5l3.1-0.2v7.5l-0.7,0.2c-3.2,0.4-5,0.5-5.4,0.5c-4.1,0-7.1-0.7-8.9-2.1c-1.2-1-2-2.3-2.3-3.9
			c-0.3-1.6-0.5-3.5-0.5-5.9V28.5H181.5z"/>
		<path fill="#1393D1" d="M207.8,8.8h9.8v46.1h-9.8V8.8z"/>
		<path fill="#1393D1" d="M232.5,17.6h-9.8V8.1h9.8V17.6z M232.5,54.9h-9.8V20.7h9.8V54.9z"/>
		<path fill="#1393D1" d="M256.5,31c-0.8-3.1-3-4.6-6.6-4.6c-3.4,0-5.1,1-5.1,3c0,1.4,1.2,2.3,3.5,2.7c2.3,0.5,4.8,0.9,7.5,1.3
			c2.7,0.4,4.9,1.4,6.8,2.9c1.8,1.5,2.8,4,2.8,7.5c0,3.6-1.5,6.6-4.6,8.9c-2.7,1.9-6.2,2.8-10.7,2.8c-3.9,0-7.3-0.8-10.1-2.3
			c-2.8-1.6-4.6-4.1-5.5-7.7l8.5-1.3c0.7,3.1,3.2,4.6,7.6,4.6c1.4,0,2.7-0.3,4-0.8s2-1.3,2-2.5c0-1.6-1.3-2.6-3.8-2.9
			c-4.7-0.6-8.1-1.3-10.1-2c-2-0.7-3.7-1.9-4.9-3.5c-1.2-1.7-1.8-3.5-1.8-5.7c0-3.9,1.4-6.8,4.2-8.6s6.3-2.8,10.4-2.8
			c6.8,0,11.3,3,13.4,8.9L256.5,31z"/>
		<path fill="#1393D1" d="M265,28.5v-7.9h6l0.8-10l8.7-0.6v10.7h7.4v7.9h-7.4v13.6c0,1.6,0.1,2.7,0.2,3.4c0.1,0.7,0.6,1.2,1.2,1.6
			s1.8,0.5,3.4,0.5l3.1-0.2v7.5l-0.7,0.2c-3.2,0.4-5,0.5-5.4,0.5c-4.1,0-7.1-0.7-8.9-2.1c-1.2-1-2-2.3-2.3-3.9
			c-0.3-1.6-0.5-3.5-0.5-5.9V28.5H265z"/>
	</g>
</g>
<g id="_x35__Dots_1_">
	<g id="_x35_">
		<g>
			<circle fill-rule="evenodd" clip-rule="evenodd" fill="#1393D1" cx="283.7" cy="63.5" r="3.8"/>
		</g>
	</g>
	<g id="_x34_">
		<g>
			<circle fill-rule="evenodd" clip-rule="evenodd" fill="#1393D1" cx="262.9" cy="64.3" r="4.6"/>
		</g>
	</g>
	<g id="_x33_">
		<g>
			<circle fill-rule="evenodd" clip-rule="evenodd" fill="#1393D1" cx="238.2" cy="65.2" r="5.4"/>
		</g>
	</g>
	<g id="_x32_">
		<g>
			<circle fill-rule="evenodd" clip-rule="evenodd" fill="#1393D1" cx="211.4" cy="66.4" r="6.5"/>
		</g>
	</g>
</g>
</svg>
